<svg width="20" height="22" viewBox="0 0 20 22" fill="none" xmlns="http://www.w3.org/2000/svg">
<path fill-rule="evenodd" clip-rule="evenodd" d="M0 11.0192C0 5.16386 4.579 0.217957 10 0.217957C15.421 0.217957 20 5.16386 20 11.0192C20 14.4648 18.408 17.5842 16 19.5782V19.6603H15.898C14.23 21.005 12.187 21.8205 10 21.8205C7.813 21.8205 5.77 21.005 4.102 19.6603H4V19.5782C1.592 17.5842 0 14.4638 0 11.0192ZM7.12347 16.6748C6.59154 17.137 6.22136 17.7813 6.074 18.5013C7.242 19.2325 8.584 19.6603 10 19.6603C11.416 19.6603 12.758 19.2325 13.926 18.5013C13.7785 17.7814 13.4082 17.1372 12.8764 16.675C12.3445 16.2128 11.6827 15.9601 11 15.9587H9C8.3173 15.9599 7.6554 16.2125 7.12347 16.6748ZM13.7677 14.7043C14.5877 15.2937 15.2286 16.1313 15.61 17.1122C17.077 15.5363 18 13.3696 18 11.0192C18 6.33472 14.337 2.37821 10 2.37821C5.663 2.37821 2 6.33472 2 11.0192C2 13.3696 2.923 15.5363 4.39 17.1122C4.77144 16.1313 5.41227 15.2937 6.23227 14.7043C7.05227 14.1149 8.01501 13.7997 9 13.7984H11C11.985 13.7997 12.9477 14.1149 13.7677 14.7043ZM6 8.85898C6 6.39629 7.72 4.53847 10 4.53847C12.28 4.53847 14 6.39629 14 8.85898C14 11.3217 12.28 13.1795 10 13.1795C7.72 13.1795 6 11.3217 6 8.85898ZM8 8.85898C8 10.1314 8.822 11.0192 10 11.0192C11.178 11.0192 12 10.1314 12 8.85898C12 7.58659 11.178 6.69872 10 6.69872C8.822 6.69872 8 7.58659 8 8.85898Z" fill="url(#paint0_linear)"/>
<defs>
<linearGradient id="paint0_linear" x1="1" y1="-3.74877e-07" x2="16.5" y2="16" gradientUnits="userSpaceOnUse">
<stop stop-color="#32A6FA"/>
<stop offset="1" stop-color="#0066FF"/>
</linearGradient>
</defs>
</svg>
